<svg width="34" height="34" viewBox="0 0 34 34" fill="none" xmlns="http://www.w3.org/2000/svg">
<circle cx="17" cy="17" r="16.5" stroke="#4D4C4C"/>
<path d="M21.2024 13.7276C20.149 13.7249 19.1195 14.0415 18.2497 14.6356C18.0956 14.7402 17.9475 14.8533 17.8061 14.9744C17.2274 15.4661 16.7628 16.0779 16.4446 16.7673C16.1263 17.4567 15.9621 18.2072 15.9634 18.9665C15.9634 19.1062 15.9687 19.2438 15.9795 19.3794C16.0081 19.7453 16.075 20.1073 16.1792 20.4593C16.2321 20.6382 16.2949 20.814 16.3671 20.986C16.8152 22.0598 17.6081 22.9539 18.6206 23.5273C19.6331 24.1006 20.8077 24.3205 21.9591 24.1524C23.1105 23.9843 24.1731 23.4376 24.9794 22.5986C25.7857 21.7597 26.2897 20.6762 26.412 19.5191C26.4316 19.3355 26.4414 19.1511 26.4413 18.9665C26.4413 17.5771 25.8894 16.2445 24.9069 15.262C23.9244 14.2795 22.5918 13.7276 21.2024 13.7276ZM25.8567 19.4597C25.742 20.544 25.2523 21.5543 24.4721 22.3161C23.692 23.0779 22.6703 23.5433 21.5835 23.6321C20.4967 23.7209 19.4131 23.4274 18.5196 22.8023C17.6262 22.1773 16.979 21.2599 16.6899 20.2085C16.611 19.9233 16.5598 19.6311 16.5369 19.336C16.5271 19.2117 16.5222 19.0874 16.5222 18.9665C16.5219 18.3048 16.6624 17.6505 16.9342 17.0472C17.206 16.4438 17.603 15.9052 18.0988 15.4669C18.2409 15.3416 18.3905 15.225 18.5465 15.1176C19.2488 14.6337 20.0699 14.3508 20.9212 14.2996C21.7724 14.2483 22.6216 14.4307 23.3768 14.8269C24.132 15.2231 24.7645 15.8182 25.2062 16.5477C25.6478 17.2773 25.8816 18.1137 25.8825 18.9665C25.8824 19.1312 25.8738 19.2959 25.8567 19.4597Z" fill="#4D4C4C"/>
<path d="M16.1796 20.4582C15.5461 20.709 14.8548 20.7766 14.1847 20.6533C13.5146 20.53 12.8927 20.2206 12.39 19.7607C11.8874 19.3007 11.5242 18.7086 11.3421 18.0521C11.1599 17.3955 11.1661 16.701 11.3599 16.0478C11.5537 15.3946 11.9273 14.809 12.4381 14.3581C12.9488 13.9071 13.5761 13.6089 14.2483 13.4975C14.9205 13.3861 15.6105 13.466 16.2394 13.7281C16.8683 13.9901 17.4109 14.4238 17.805 14.9796C17.9467 14.8584 18.0948 14.7449 18.2486 14.6394C17.7917 14.0017 17.165 13.505 16.4398 13.2058C15.7145 12.9067 14.9199 12.8171 14.1463 12.9472C13.3726 13.0774 12.651 13.4221 12.0636 13.942C11.4762 14.462 11.0465 15.1364 10.8234 15.8886C10.6003 16.6407 10.5928 17.4403 10.8017 18.1965C11.0107 18.9527 11.4276 19.635 12.0052 20.1659C12.5828 20.6969 13.2977 21.055 14.0688 21.1997C14.8399 21.3443 15.636 21.2696 16.3668 20.9842C16.295 20.8123 16.2325 20.6367 16.1796 20.4582Z" fill="#4D4C4C"/>
<path d="M17.1717 22.3131C16.1716 22.7585 15.0649 22.9079 13.9826 22.7438C12.9002 22.5796 11.8876 22.1088 11.0646 21.387C10.2415 20.6651 9.64261 19.7226 9.33867 18.6709C9.03473 17.6192 9.03853 16.5025 9.34961 15.4529C9.66069 14.4033 10.266 13.4648 11.0939 12.7486C11.9219 12.0324 12.9377 11.5685 14.0211 11.4117C15.1045 11.2549 16.2102 11.4119 17.2072 11.864C18.2042 12.3162 19.0507 13.0445 19.6465 13.9629C19.8356 13.9054 20.0278 13.8588 20.2221 13.8232C19.5908 12.7819 18.6706 11.9464 17.5735 11.4182C16.4763 10.89 15.2493 10.6917 14.0416 10.8476C12.8339 11.0035 11.6975 11.5067 10.7704 12.2962C9.84328 13.0857 9.16541 14.1275 8.81913 15.2949C8.47284 16.4623 8.47306 17.7052 8.81974 18.8725C9.16642 20.0398 9.84465 21.0813 10.772 21.8705C11.6994 22.6597 12.836 23.1625 14.0438 23.318C15.2515 23.4734 16.4784 23.2748 17.5754 22.7462C17.4328 22.6095 17.298 22.4649 17.1717 22.3131Z" fill="#4D4C4C"/>
<path d="M21.2025 15.8237C20.3691 15.8247 19.5701 16.1561 18.9808 16.7454C18.3915 17.3347 18.06 18.1337 18.0591 18.9671C18.0591 19.0488 18.0591 19.1341 18.0689 19.2172C18.1313 19.9982 18.4832 20.7278 19.0556 21.2629C19.6279 21.7979 20.3795 22.1 21.163 22.1098C21.9464 22.1196 22.7053 21.8364 23.2909 21.3158C23.8764 20.7952 24.2464 20.0746 24.3284 19.2954C24.3403 19.1864 24.3461 19.0768 24.3458 18.9671C24.3449 18.1337 24.0134 17.3347 23.4242 16.7454C22.8349 16.1561 22.0359 15.8247 21.2025 15.8237ZM23.7731 19.236C23.706 19.8768 23.402 20.4694 22.9207 20.8977C22.4394 21.326 21.8155 21.5591 21.1713 21.5513C20.5271 21.5435 19.909 21.2954 19.4383 20.8556C18.9675 20.4158 18.6779 19.8161 18.6263 19.1739C18.6207 19.104 18.6179 19.0342 18.6179 18.9643C18.618 18.6136 18.6894 18.2666 18.8279 17.9444C18.9664 17.6222 19.169 17.3315 19.4234 17.0901C19.6777 16.8487 19.9786 16.6616 20.3076 16.5402C20.6366 16.4188 20.9869 16.3656 21.3371 16.3838C21.6873 16.4021 22.0302 16.4915 22.3448 16.6465C22.6594 16.8015 22.9391 17.0189 23.167 17.2854C23.3949 17.552 23.5661 17.8622 23.6703 18.197C23.7745 18.5319 23.8095 18.8844 23.7731 19.2333V19.236Z" fill="#4D4C4C"/>
<path d="M21.2025 15.8237C20.3691 15.8247 19.5701 16.1561 18.9808 16.7454C18.3915 17.3347 18.06 18.1337 18.0591 18.9671C18.0591 19.0488 18.0591 19.1341 18.0689 19.2172C18.1313 19.9982 18.4832 20.7278 19.0556 21.2629C19.6279 21.7979 20.3795 22.1 21.163 22.1098C21.9464 22.1196 22.7053 21.8364 23.2909 21.3158C23.8764 20.7952 24.2464 20.0746 24.3284 19.2954C24.3403 19.1864 24.3461 19.0768 24.3458 18.9671C24.3449 18.1337 24.0134 17.3347 23.4242 16.7454C22.8349 16.1561 22.0359 15.8247 21.2025 15.8237ZM23.7731 19.236C23.706 19.8768 23.402 20.4694 22.9207 20.8977C22.4394 21.326 21.8155 21.5591 21.1713 21.5513C20.5271 21.5435 19.909 21.2954 19.4383 20.8556C18.9675 20.4158 18.6779 19.8161 18.6263 19.1739C18.6207 19.104 18.6179 19.0342 18.6179 18.9643C18.618 18.6136 18.6894 18.2666 18.8279 17.9444C18.9664 17.6222 19.169 17.3315 19.4234 17.0901C19.6777 16.8487 19.9786 16.6616 20.3076 16.5402C20.6366 16.4188 20.9869 16.3656 21.3371 16.3838C21.6873 16.4021 22.0302 16.4915 22.3448 16.6465C22.6594 16.8015 22.9391 17.0189 23.167 17.2854C23.3949 17.552 23.5661 17.8622 23.6703 18.197C23.7745 18.5319 23.8095 18.8844 23.7731 19.2333V19.236Z" fill="#4D4C4C"/>
<path d="M14.8456 20.7132C14.2223 20.7135 13.6095 20.5534 13.066 20.2483C12.5225 19.9433 12.0667 19.5035 11.7423 18.9713C11.418 18.4391 11.236 17.8324 11.2139 17.2095C11.1919 16.5866 11.3304 15.9686 11.6163 15.4148C11.9022 14.8609 12.3258 14.39 12.8463 14.0472C13.3668 13.7044 13.9668 13.5014 14.5885 13.4575C15.2102 13.4137 15.8328 13.5306 16.3962 13.7969C16.9597 14.0632 17.4452 14.4701 17.806 14.9783C17.9473 14.856 18.0954 14.7417 18.2495 14.636C17.7925 13.9986 17.1657 13.5023 16.4405 13.2034C15.7153 12.9045 14.9208 12.8151 14.1474 12.9454C13.3739 13.0757 12.6525 13.4204 12.0653 13.9404C11.478 14.4603 11.0484 15.1346 10.8254 15.8866C10.6023 16.6385 10.5948 17.438 10.8036 18.1941C11.0124 18.9501 11.4291 19.6324 12.0065 20.1634C12.5838 20.6943 13.2985 21.0526 14.0694 21.1974C14.8402 21.3423 15.6363 21.268 16.367 20.9829C16.2947 20.8109 16.232 20.6351 16.1791 20.4562C15.7548 20.6254 15.3023 20.7126 14.8456 20.7132Z" fill="#4D4C4C"/>
</svg>
