<svg width="34" height="34" viewBox="0 0 34 34" fill="none" xmlns="http://www.w3.org/2000/svg">
<circle cx="17" cy="17" r="16.5" stroke="#4D4C4C"/>
<path d="M12.0781 15.0312C12.0781 17.3706 13.717 19.3519 15.9453 19.8394V24.0249L13.3271 25.3339C13.1813 25.4068 13.1048 25.5705 13.1421 25.7292C13.1796 25.8879 13.3214 26 13.4844 26H20.5156C20.6786 26 20.8203 25.8879 20.8577 25.7292C20.8952 25.5705 20.8187 25.407 20.6727 25.3339L18.0547 24.0249V19.8394C20.345 19.3381 21.9633 17.2799 21.9214 14.9542C21.9067 14.0518 21.7661 13.9358 20.5067 8.27328C20.4703 8.11343 20.328 8 20.164 8H18.4414C18.2472 8 18.0898 8.15738 18.0898 8.35156C18.0898 8.54574 18.2472 8.70312 18.4414 8.70312H19.8838C19.8838 8.70312 21.1494 14.2621 21.1637 14.3501C20.4244 13.9867 19.5373 13.6478 18.7682 13.6251C17.9562 13.6007 17.2137 14.0088 16.4961 14.4031C15.8161 14.7768 15.1739 15.1297 14.5954 15.0358C14.1175 14.9583 13.5345 14.6091 12.9018 14.0232L14.1164 8.70312H15.6289C15.8231 8.70312 15.9805 8.54574 15.9805 8.35156C15.9805 8.15738 15.8231 8 15.6289 8H13.8359C13.672 8 13.5297 8.11343 13.4932 8.27328C12.0903 14.4226 12.0781 14.2335 12.0781 15.0312H12.0781ZM19.0264 25.2968H14.9736L16.4541 24.5566C16.5732 24.497 16.6484 24.3752 16.6484 24.2422V19.9402C16.7653 19.9484 16.8827 19.9531 17 19.9531C17.1173 19.9531 17.2347 19.9484 17.3516 19.9402V24.2422C17.3516 24.3754 17.4268 24.497 17.5459 24.5566L19.0264 25.2968ZM16.8348 15.0193C17.4698 14.6705 18.1262 14.3096 18.7475 14.328C19.3658 14.3461 20.2371 14.6433 21.2163 15.1676C21.1436 17.3767 19.3093 19.2687 16.9648 19.2496C14.5654 19.2302 12.6879 17.1966 12.7852 14.8545C13.3928 15.3516 13.9619 15.6454 14.4828 15.7298C15.3065 15.8636 16.0964 15.4251 16.8348 15.0193Z" fill="#4D4C4C"/>
<path d="M17.3867 8.35156C17.3867 8.54575 17.2293 8.70312 17.0352 8.70312C16.841 8.70312 16.6836 8.54575 16.6836 8.35156C16.6836 8.15738 16.841 8 17.0352 8C17.2293 8 17.3867 8.15738 17.3867 8.35156Z" fill="#4D4C4C"/>
</svg>
