<svg width="34" height="34" viewBox="0 0 34 34" fill="none" xmlns="http://www.w3.org/2000/svg">
<circle cx="17" cy="17" r="16.5" stroke="#4D4C4C"/>
<path d="M19.9509 15.2562V21.5242C19.9509 21.6621 19.8381 21.7749 19.7002 21.7749H14.6858C14.5479 21.7749 14.4351 21.6621 14.4351 21.5242V21.4765C14.5128 21.4515 14.5867 21.4164 14.6394 21.3788C14.6394 21.3788 16.0998 20.3358 16.7542 19.8682C17.4098 19.3993 17.4663 18.6748 16.8796 18.2561C16.2941 17.8374 14.6394 16.6552 14.6394 16.6552C14.5867 16.6176 14.5128 16.5825 14.4351 16.5574V15.2562C14.4351 15.1183 14.5479 15.0055 14.6858 15.0055H19.7002C19.8381 15.0055 19.9509 15.1183 19.9509 15.2562Z" fill="#4D4C4C"/>
<path d="M12.5548 18.1391H10.2983V17.6377H12.5548V18.1391Z" fill="#4D4C4C"/>
<path d="M12.5548 20.3955H10.2983V19.894H12.5548V20.3955Z" fill="#4D4C4C"/>
<path d="M12.5548 19.2676H10.2983V18.7661H12.5548V19.2676Z" fill="#4D4C4C"/>
<path d="M18.5719 10.1162H15.814V10.6176H18.5719V10.1162Z" fill="#4D4C4C"/>
<path d="M24.7145 13.3756C24.7145 13.5139 24.6021 13.6263 24.4638 13.6263H23.9623V10.6177H24.4638C24.6021 10.6177 24.7145 10.7301 24.7145 10.8684V13.3756ZM22.082 14.6292V23.4044C22.082 23.6809 21.8571 23.9058 21.5805 23.9058H12.8053C12.5288 23.9058 12.3039 23.6809 12.3039 23.4044V21.7747H14.1843C14.3728 21.7747 14.631 21.6921 14.7848 21.5822L16.8998 20.0714C17.3039 19.7828 17.5354 19.3848 17.5354 18.979C17.5354 18.616 17.3543 18.2867 17.0252 18.0517L14.7847 16.4512C14.631 16.3415 14.3728 16.2589 14.1843 16.2589H12.3039V14.6292C12.3039 14.0762 11.854 13.6263 11.301 13.6263H10.925V10.6177H14.5723C14.6988 11.9523 15.8259 12.9995 17.1929 12.9995C18.56 12.9995 19.6871 11.9523 19.8136 10.6177H23.4609V13.6263H23.0848C22.5319 13.6263 22.082 14.0762 22.082 14.6292ZM9.67136 20.7718V17.2617C9.67136 16.9852 9.89626 16.7603 10.1728 16.7603H14.1843C14.2703 16.7603 14.4234 16.8094 14.4934 16.8592L16.7339 18.4598C16.9302 18.5999 17.034 18.7795 17.034 18.979C17.034 19.2207 16.8789 19.4702 16.6085 19.6634L14.4936 21.1742C14.4234 21.2241 14.2703 21.2732 14.1843 21.2732H10.1728C9.89626 21.2732 9.67136 21.0483 9.67136 20.7718ZM9.67136 13.3756V10.8684C9.67136 10.7301 9.78381 10.6177 9.92208 10.6177H10.4235V13.6263H9.92208C9.78381 13.6263 9.67136 13.5139 9.67136 13.3756ZM24.4638 10.1162H19.324V10.367C19.324 11.5421 18.3681 12.4981 17.1929 12.4981C16.0178 12.4981 15.0618 11.5421 15.0618 10.367V10.1162H9.92208C9.50726 10.1162 9.16992 10.4536 9.16992 10.8684V13.3756C9.16992 13.7904 9.50726 14.1277 9.92208 14.1277H11.301C11.5776 14.1277 11.8025 14.3526 11.8025 14.6292V16.2589H10.1728C9.61984 16.2589 9.16992 16.7088 9.16992 17.2617V20.7718C9.16992 21.3248 9.61984 21.7747 10.1728 21.7747H11.8025V23.4044C11.8025 23.9573 12.2524 24.4072 12.8053 24.4072H21.5805C22.1335 24.4072 22.5834 23.9573 22.5834 23.4044V14.6292C22.5834 14.3526 22.8083 14.1277 23.0848 14.1277H24.4638C24.8786 14.1277 25.2159 13.7904 25.2159 13.3756V10.8684C25.2159 10.4536 24.8786 10.1162 24.4638 10.1162Z" fill="#4D4C4C"/>
<path d="M13.6826 19.0167C13.6826 18.7401 13.9075 18.5152 14.184 18.5152C14.4606 18.5152 14.6855 18.7401 14.6855 19.0167C14.6855 19.2932 14.4606 19.5181 14.184 19.5181C13.9075 19.5181 13.6826 19.2932 13.6826 19.0167ZM15.1869 19.0167C15.1869 18.4637 14.737 18.0138 14.184 18.0138C13.6311 18.0138 13.1812 18.4637 13.1812 19.0167C13.1812 19.5696 13.6311 20.0195 14.184 20.0195C14.737 20.0195 15.1869 19.5696 15.1869 19.0167Z" fill="#4D4C4C"/>
<path d="M13.0562 23.1538H21.3299V22.6523H13.0562V23.1538Z" fill="#4D4C4C"/>
</svg>
