<svg width="34" height="34" viewBox="0 0 34 34" fill="none" xmlns="http://www.w3.org/2000/svg">
<circle cx="17" cy="17" r="16.5" stroke="#4D4C4C"/>
<path d="M14.1675 11.3205H15.0483V12.1105H15.6373V13.0396V13.5083V14.4454V19.1438V24.4285C15.6373 25.025 16.1227 25.5104 16.7192 25.5104H16.759C17.3555 25.5104 17.8409 25.025 17.8409 24.4285V19.1438V15.9931V15.993H17.3721V15.9931V18.6751H16.1061V14.9141H17.3721V15.2532V15.4936H17.8409V15.2532V14.4454V13.5083V13.0396V12.1105H18.3269V10.6388C18.8596 10.5931 20.3421 10.5167 21.6703 10.9175C21.8198 10.9625 21.9785 10.8936 22.0474 10.7532C22.1163 10.613 22.0741 10.4453 21.947 10.3544L21.5583 10.0764C20.3345 9.20125 18.0158 8.48926 16.3897 8.48926H15.0483V9.12973H14.1675V8.72383H11.9199V11.6323H14.1675V11.3205ZM17.3721 19.1438V24.4285C17.3721 24.7665 17.0971 25.0416 16.759 25.0416H16.7192C16.3811 25.0416 16.1061 24.7665 16.1061 24.4285V19.1438H17.3721ZM17.3721 14.4454H16.1061V13.5083H17.3721V14.4454ZM17.3721 13.0396H16.1061V12.1105H17.3721V13.0396ZM21.0177 10.2807C19.5284 10.0096 18.131 10.1856 18.0622 10.1946L17.8582 10.2213V11.6418H17.8409H16.2395V8.95801H16.3897C17.7952 8.95801 19.823 9.5475 21.0177 10.2807ZM15.517 8.95801H15.7707V11.6418H15.6373H15.5171V9.66332H15.517V9.12973V8.95801ZM15.0483 9.59844V10.8518H14.1675V9.59844H15.0483ZM12.3887 9.19258H13.6988V11.1636H12.3887V9.19258Z" fill="#4D4C4C"/>
<path d="M16.9736 21.4131H16.5049V24.0027H16.9736V21.4131Z" fill="#4D4C4C"/>
<path d="M16.9736 20.0439H16.5049V20.9288H16.9736V20.0439Z" fill="#4D4C4C"/>
</svg>
