<svg width="34" height="34" viewBox="0 0 34 34" fill="none" xmlns="http://www.w3.org/2000/svg">
<circle cx="17" cy="17" r="16.5" stroke="#4D4C4C"/>
<path d="M25.5135 12.5282H24.6275V13.1188H25.5135C25.6764 13.1188 25.8089 13.2513 25.8089 13.4142V21.3882C25.8089 22.2025 25.1464 22.8649 24.3322 22.8649H18.4255C17.9368 22.8649 17.5395 23.2623 17.5395 23.7509V23.8986H16.3581V23.7509C16.3581 23.2623 15.9607 22.8649 15.4721 22.8649H9.5654C8.75116 22.8649 8.08872 22.2025 8.08872 21.3882V13.4142C8.08872 13.2513 8.22118 13.1188 8.38405 13.1188H9.27006V12.5282H8.38405C7.89542 12.5282 7.49805 12.9255 7.49805 13.4142V21.3882C7.49805 22.5282 8.4254 23.4556 9.5654 23.4556H15.4721C15.635 23.4556 15.7674 23.588 15.7674 23.7509V23.8986C15.7674 24.2243 16.0324 24.4893 16.3581 24.4893H17.5395C17.8652 24.4893 18.1301 24.2243 18.1301 23.8986V23.7509C18.1301 23.588 18.2626 23.4556 18.4255 23.4556H24.3322C25.4722 23.4556 26.3995 22.5282 26.3995 21.3882V13.4142C26.3995 12.9255 26.0022 12.5282 25.5135 12.5282Z" fill="#4D4C4C"/>
<path d="M15.4723 12.528H11.9282V13.1187H15.4723V12.528Z" fill="#4D4C4C"/>
<path d="M15.4723 13.8571H11.9282V14.4478H15.4723V13.8571Z" fill="#4D4C4C"/>
<path d="M15.4723 15.1862H11.9282V15.7769H15.4723V15.1862Z" fill="#4D4C4C"/>
<path d="M21.9698 12.528H18.4258V13.1187H21.9698V12.528Z" fill="#4D4C4C"/>
<path d="M21.9698 13.8571H18.4258V14.4478H21.9698V13.8571Z" fill="#4D4C4C"/>
<path d="M21.9698 15.1862H18.4258V15.7769H21.9698V15.1862Z" fill="#4D4C4C"/>
<path d="M24.3321 20.5025C24.3321 20.9912 23.9676 21.3886 23.5199 21.3886H18.13C17.9109 21.3886 17.7034 21.4379 17.5162 21.524C17.8075 21.0867 18.3047 20.7979 18.8684 20.7979H22.4124C23.0637 20.7979 23.5937 20.2679 23.5937 19.6165V11.9378H23.8891C24.1292 11.9378 24.3321 12.2083 24.3321 12.5285V20.5025ZM10.3775 21.3886C9.92972 21.3886 9.56528 20.9912 9.56528 20.5025V12.5285C9.56528 12.2083 9.76818 11.9378 10.0083 11.9378H10.3036V19.6165C10.3036 20.2679 10.8336 20.7979 11.485 20.7979H15.029C15.5926 20.7979 16.0897 21.0867 16.3812 21.524C16.1939 21.4379 15.9865 21.3886 15.7673 21.3886H10.3775ZM10.8943 11.1995C10.8943 10.8737 11.1592 10.6088 11.485 10.6088H15.029C15.9246 10.6088 16.6533 11.3375 16.6533 12.2332V20.9179C16.2486 20.481 15.6702 20.2072 15.029 20.2072H11.485C11.1592 20.2072 10.8943 19.9423 10.8943 19.6165V11.1995ZM18.8684 10.6088H22.4124C22.7381 10.6088 23.0031 10.8737 23.0031 11.1995V19.6165C23.0031 19.9423 22.7381 20.2072 22.4124 20.2072H18.8684C18.2263 20.2072 17.6489 20.4835 17.244 20.9213V12.2332C17.244 11.3375 17.9727 10.6088 18.8684 10.6088ZM23.8891 11.3471H23.5937V11.1995C23.5937 10.5481 23.0637 10.0181 22.4124 10.0181H18.8684C18.0476 10.0181 17.3313 10.4678 16.9487 11.1327C16.5661 10.4678 15.8497 10.0181 15.029 10.0181H11.485C10.8336 10.0181 10.3036 10.5481 10.3036 11.1995V11.3471H10.0083C9.43843 11.3471 8.97461 11.8771 8.97461 12.5285V20.5025C8.97461 21.3168 9.60397 21.9792 10.3775 21.9792H15.7673C16.256 21.9792 16.6533 22.3766 16.6533 22.8652H17.244C17.244 22.3766 17.6414 21.9792 18.13 21.9792H23.5199C24.2934 21.9792 24.9227 21.3168 24.9227 20.5025V12.5285C24.9227 11.8771 24.4589 11.3471 23.8891 11.3471Z" fill="#4D4C4C"/>
<path d="M15.4723 17.9918C15.4723 18.1549 15.3401 18.2871 15.1769 18.2871H12.2236C12.0604 18.2871 11.9282 18.1549 11.9282 17.9918V16.8104C11.9282 16.6473 12.0604 16.5151 12.2236 16.5151H15.1769C15.3401 16.5151 15.4723 16.6473 15.4723 16.8104V17.9918Z" fill="#4D4C4C"/>
<path d="M21.9698 17.9918C21.9698 18.1549 21.8376 18.2871 21.6745 18.2871H18.7211C18.5579 18.2871 18.4258 18.1549 18.4258 17.9918V16.8104C18.4258 16.6473 18.5579 16.5151 18.7211 16.5151H21.6745C21.8376 16.5151 21.9698 16.6473 21.9698 16.8104V17.9918Z" fill="#4D4C4C"/>
</svg>
