<svg width="34" height="34" viewBox="0 0 34 34" fill="none" xmlns="http://www.w3.org/2000/svg">
<circle cx="17" cy="17" r="16.5" stroke="#4D4C4C"/>
<path d="M20.636 17.7271H13.3633V18.4543H20.636V17.7271Z" fill="#4D4C4C"/>
<path d="M20.636 19.9092H13.3633V20.6365H20.636V19.9092Z" fill="#4D4C4C"/>
<path d="M17.7269 11.1816H13.3633V11.9089H17.7269V11.1816Z" fill="#4D4C4C"/>
<path d="M20.636 22.0908H13.3633V22.8181H20.636V22.0908Z" fill="#4D4C4C"/>
<path d="M20.636 15.5454H13.3633V16.2727H20.636V15.5454Z" fill="#4D4C4C"/>
<path d="M22.4653 25C22.4653 25 22.818 25 22.818 24.6444V12.2L19.6442 9H11.5344C11.5344 9 11.1816 9 11.1816 9.35564V24.6436C11.1816 25 11.5344 25 11.5344 25H22.4653ZM11.9089 9.72727H19.1816V11.9091C19.1816 12.6364 19.9089 12.6364 19.9089 12.6364H22.0907V24.2727H11.9089V9.72727Z" fill="#4D4C4C"/>
<path d="M20.636 13.3638H13.3633V14.091H20.636V13.3638Z" fill="#4D4C4C"/>
</svg>
