<svg width="34" height="34" viewBox="0 0 34 34" fill="none" xmlns="http://www.w3.org/2000/svg">
<circle cx="17" cy="17" r="16.5" stroke="#4D4C4C"/>
<g clip-path="url(#clip0)">
<path d="M20.3812 25.7574C20.7376 25.4011 20.9338 24.9266 20.9338 24.4215L20.9338 20.5969C20.934 20.5924 20.9345 20.5879 20.9345 20.5833C20.9345 20.5787 20.934 20.5743 20.9338 20.5698L20.9338 19.2923C20.9338 19.1073 20.7838 18.9574 20.5988 18.9573C20.4139 18.9573 20.2639 19.1073 20.2639 19.2923L20.2639 20.2484L18.6821 20.2484C18.6002 20.2484 18.5212 20.2784 18.4599 20.3327C18.0181 20.7243 17.4456 20.9407 16.8492 20.9419C16.2515 20.9407 15.679 20.7243 15.2372 20.3327C15.176 20.2784 15.0969 20.2484 15.015 20.2484H13.4332L13.4332 15.6581L15.0144 15.6581C15.0963 15.6581 15.1753 15.6281 15.2366 15.5738C15.6792 15.1814 16.2517 14.9653 16.8486 14.9653C17.4455 14.9653 18.018 15.1814 18.4605 15.5738C18.5218 15.6281 18.6009 15.6581 18.6828 15.6581L20.2639 15.6581L20.2639 16.2577C20.2639 16.3502 20.3014 16.434 20.362 16.4946C20.4226 16.5552 20.5063 16.5926 20.5988 16.5927C20.7838 16.5927 20.9338 16.4427 20.9338 16.2577L20.9338 15.3234C20.9338 15.3233 20.9338 15.3232 20.9338 15.3232C20.9338 15.3231 20.9338 15.323 20.9338 15.3229L20.9338 14.1778C20.9338 12.4201 20.0486 11.6369 19.4021 11.065C19.0185 10.7257 18.8016 10.5218 18.8016 10.2758L18.8015 9.66948L18.8385 9.66948C18.9274 9.66946 19.0126 9.63414 19.0754 9.57133C19.1383 9.5085 19.1735 9.42326 19.1735 9.33439L19.1728 7.86359C19.1728 7.5397 19.0459 7.23439 18.8154 7.00391C18.585 6.77344 18.2796 6.64649 17.9557 6.64649H15.7416C15.4176 6.64649 15.1123 6.77342 14.8819 7.00389C14.6514 7.23436 14.5245 7.53968 14.5245 7.86345L14.5238 9.33442C14.5237 9.42328 14.559 9.50852 14.6218 9.57138L14.6218 9.57143C14.6847 9.63424 14.7699 9.66953 14.8587 9.66953L14.8957 9.66953L14.8957 10.2758C14.8957 10.5218 14.6787 10.7257 14.2952 11.065C13.6487 11.6369 12.7634 12.4201 12.7634 14.1778L12.7634 15.323C12.7634 15.323 12.7634 15.3231 12.7634 15.3232C12.7634 15.3232 12.7634 15.3233 12.7634 15.3234L12.7634 20.5704C12.7633 20.5748 12.7628 20.579 12.7628 20.5833C12.7628 20.5877 12.7633 20.5919 12.7634 20.5962V24.4215C12.7634 24.9266 12.9597 25.4011 13.316 25.7574C13.9778 26.4192 15.0128 26.4855 15.7503 25.9572C16.4046 26.4256 17.2927 26.4256 17.947 25.9572C18.6845 26.4855 19.7194 26.4192 20.3812 25.7574ZM15.1943 7.86361C15.1943 7.71864 15.2516 7.58155 15.3555 7.47758C15.4595 7.3736 15.5966 7.31638 15.7416 7.31638H17.9557C18.1007 7.31638 18.2378 7.37363 18.3417 7.4776C18.4457 7.58158 18.5029 7.71866 18.503 7.86378L18.5035 8.99964L15.1938 8.99964L15.1943 7.86361ZM14.7391 11.5668C15.1641 11.1908 15.5656 10.8356 15.5656 10.2758L15.5656 9.66955H18.1317L18.1317 10.2759C18.1317 10.8356 18.5332 11.1908 18.9583 11.5668C19.5703 12.1083 20.264 12.7219 20.264 14.1779L20.2639 14.9883L18.8058 14.9883C18.2556 14.5406 17.5657 14.2955 16.8486 14.2954C16.1316 14.2954 15.4417 14.5405 14.8915 14.9883L13.4334 14.9883V14.1779C13.4333 12.7219 14.127 12.1082 14.7391 11.5668ZM18.421 25.4679C18.6261 25.161 18.7365 24.8002 18.7371 24.4221C18.7374 24.2372 18.5877 24.087 18.4027 24.0866C18.2178 24.0863 18.0675 24.236 18.0672 24.421C18.0667 24.7472 17.9398 25.0533 17.7101 25.2831C17.2351 25.7581 16.4622 25.7581 15.9871 25.2831C15.7574 25.0533 15.6306 24.7472 15.63 24.421C15.6297 24.236 15.4795 24.0863 15.2945 24.0866C15.1095 24.0869 14.9598 24.2372 14.9601 24.4221C14.9607 24.8002 15.0712 25.161 15.2762 25.4679C14.8082 25.7473 14.192 25.686 13.7897 25.2837C13.5599 25.0539 13.4333 24.7477 13.4333 24.4215L13.4334 20.9183L14.8922 20.9182C15.4413 21.365 16.1308 21.6103 16.8493 21.6118C17.5666 21.6103 18.2559 21.365 18.8051 20.9182L20.2639 20.9182L20.264 24.4215C20.264 24.7477 20.1374 25.0538 19.9076 25.2837C19.5052 25.686 18.8891 25.7473 18.421 25.4679Z" fill="#4D4C4C"/>
<path d="M18.764 17.0351C18.764 16.8501 18.6141 16.7002 18.4291 16.7001L15.3219 16.7001C15.137 16.7001 14.987 16.8501 14.987 17.0351C14.987 17.1275 15.0245 17.2113 15.0851 17.2719C15.1457 17.3325 15.2295 17.37 15.3219 17.37L18.429 17.37C18.614 17.37 18.764 17.2201 18.764 17.0351Z" fill="#4D4C4C"/>
<path d="M18.4291 18.3114L15.322 18.3114C15.137 18.3114 14.987 18.4614 14.987 18.6464C14.987 18.7389 15.0245 18.8226 15.0851 18.8832C15.1457 18.9439 15.2294 18.9813 15.3219 18.9813L18.429 18.9813C18.614 18.9813 18.764 18.8314 18.764 18.6464C18.764 18.4614 18.614 18.3115 18.4291 18.3114Z" fill="#4D4C4C"/>
<path d="M20.2427 17.7644C20.2427 17.8566 20.2799 17.9397 20.3401 18C20.4008 18.0606 20.4848 18.098 20.5777 18.0981C20.7626 18.0981 20.9126 17.9467 20.9126 17.7618C20.9126 17.5768 20.7627 17.4269 20.5777 17.4268C20.3927 17.4268 20.2427 17.5768 20.2427 17.7618L20.2427 17.7644Z" fill="#4D4C4C"/>
</g>
<defs>
<clipPath id="clip0">
<rect width="17.1494" height="17.1494" fill="white" transform="translate(16.8486 5.03711) rotate(45)"/>
</clipPath>
</defs>
</svg>
