<svg width="34" height="34" viewBox="0 0 34 34" fill="none" xmlns="http://www.w3.org/2000/svg">
<circle cx="17" cy="17" r="16.5" stroke="#4D4C4C"/>
<path d="M24.0312 17.8438H23.75V16.7188C23.75 16.6725 23.7386 16.6269 23.7168 16.5861C23.6949 16.5452 23.6634 16.5104 23.6248 16.4848L22.0625 15.4433V12.7813C22.1371 12.7813 22.2086 12.7516 22.2614 12.6989C22.3141 12.6461 22.3438 12.5746 22.3438 12.5C22.3438 12.4254 22.3141 12.3539 22.2614 12.3011C22.2086 12.2484 22.1371 12.2188 22.0625 12.2188V11.6563C22.1371 11.6563 22.2086 11.6266 22.2614 11.5739C22.3141 11.5211 22.3438 11.4496 22.3438 11.375C22.3438 11.3004 22.3141 11.2289 22.2614 11.1761C22.2086 11.1234 22.1371 11.0938 22.0625 11.0938V10.5313C22.1371 10.5313 22.2086 10.5016 22.2614 10.4489C22.3141 10.3961 22.3438 10.3246 22.3438 10.25C22.3438 10.1754 22.3141 10.1039 22.2614 10.0511C22.2086 9.99838 22.1371 9.96875 22.0625 9.96875V9.125C22.0625 9.05041 22.0329 8.97887 21.9801 8.92613C21.9274 8.87338 21.8558 8.84375 21.7812 8.84375H19.8125C19.7662 8.84374 19.7206 8.85516 19.6798 8.877C19.639 8.89883 19.6042 8.9304 19.5785 8.96891L19.0995 9.6875H14.6192L14.1411 8.96891C14.1153 8.93028 14.0804 8.89864 14.0394 8.8768C13.9984 8.85496 13.9527 8.84361 13.9062 8.84375H11.9375C11.8629 8.84375 11.7914 8.87338 11.7386 8.92613C11.6859 8.97887 11.6562 9.05041 11.6562 9.125V9.96875C11.5817 9.96875 11.5101 9.99838 11.4574 10.0511C11.4046 10.1039 11.375 10.1754 11.375 10.25C11.375 10.3246 11.4046 10.3961 11.4574 10.4489C11.5101 10.5016 11.5817 10.5313 11.6562 10.5313V11.0938C11.5817 11.0938 11.5101 11.1234 11.4574 11.1761C11.4046 11.2289 11.375 11.3004 11.375 11.375C11.375 11.4496 11.4046 11.5211 11.4574 11.5739C11.5101 11.6266 11.5817 11.6563 11.6562 11.6563V12.2188C11.5817 12.2188 11.5101 12.2484 11.4574 12.3011C11.4046 12.3539 11.375 12.4254 11.375 12.5C11.375 12.5746 11.4046 12.6461 11.4574 12.6989C11.5101 12.7516 11.5817 12.7813 11.6562 12.7813V15.4588L10.3555 16.4994C10.3226 16.5257 10.296 16.5591 10.2778 16.5971C10.2595 16.635 10.25 16.6766 10.25 16.7188V17.8438H9.96875C9.89416 17.8438 9.82262 17.8734 9.76988 17.9261C9.71713 17.9789 9.6875 18.0504 9.6875 18.125V19.25C9.6875 19.3246 9.71713 19.3961 9.76988 19.4489C9.82262 19.5016 9.89416 19.5313 9.96875 19.5313H10.25V21.7813H9.96875C9.89416 21.7813 9.82262 21.8109 9.76988 21.8636C9.71713 21.9164 9.6875 21.9879 9.6875 22.0625V23.1875C9.6875 23.2621 9.71713 23.3336 9.76988 23.3864C9.82262 23.4391 9.89416 23.4688 9.96875 23.4688H10.25V24.875C10.25 24.9496 10.2796 25.0211 10.3324 25.0739C10.3851 25.1266 10.4567 25.1563 10.5312 25.1563H19.4843C19.5589 25.1563 19.6304 25.1266 19.6832 25.0739C19.7359 25.0211 19.7655 24.9496 19.7655 24.875C19.7655 24.8004 19.7359 24.7289 19.6832 24.6761C19.6304 24.6234 19.5589 24.5938 19.4843 24.5938H17.2812V24.0313H18.125C18.1996 24.0313 18.2711 24.0016 18.3239 23.9489C18.3766 23.8961 18.4062 23.8246 18.4062 23.75V23.4688H23.1875V24.5938H20.7499C20.6753 24.5938 20.6038 24.6234 20.551 24.6761C20.4983 24.7289 20.4687 24.8004 20.4687 24.875C20.4687 24.9496 20.4983 25.0211 20.551 25.0739C20.6038 25.1266 20.6753 25.1563 20.7499 25.1563H23.4688C23.5433 25.1563 23.6149 25.1266 23.6676 25.0739C23.7204 25.0211 23.75 24.9496 23.75 24.875V23.4688H24.0312C24.1058 23.4688 24.1774 23.4391 24.2301 23.3864C24.2829 23.3336 24.3125 23.2621 24.3125 23.1875V22.0625C24.3125 21.9879 24.2829 21.9164 24.2301 21.8636C24.1774 21.8109 24.1058 21.7813 24.0312 21.7813H23.75V19.5313H24.0312C24.1058 19.5313 24.1774 19.5016 24.2301 19.4489C24.2829 19.3961 24.3125 19.3246 24.3125 19.25V18.125C24.3125 18.0504 24.2829 17.9789 24.2301 17.9261C24.1774 17.8734 24.1058 17.8438 24.0312 17.8438ZM18.6976 10.25L16.9871 12.6024L15.0622 10.25H18.6976ZM17.8438 19.5313H16.1562V17.8438H17.8438V19.5313ZM10.8125 17.2813H12.2188C12.2933 17.2813 12.3649 17.2516 12.4176 17.1989C12.4704 17.1461 12.5 17.0746 12.5 17C12.5 16.9254 12.4704 16.8539 12.4176 16.8011C12.3649 16.7484 12.2933 16.7188 12.2188 16.7188H10.9813L12.113 15.8134C12.146 15.7871 12.1726 15.7537 12.1909 15.7156C12.2092 15.6776 12.2187 15.636 12.2188 15.5938V12.7813H12.7812C12.8558 12.7813 12.9274 12.7516 12.9801 12.6989C13.0329 12.6461 13.0625 12.5746 13.0625 12.5C13.0625 12.4254 13.0329 12.3539 12.9801 12.3011C12.9274 12.2484 12.8558 12.2188 12.7812 12.2188H12.2188V11.6563H13.3438C13.4183 11.6563 13.4899 11.6266 13.5426 11.5739C13.5954 11.5211 13.625 11.4496 13.625 11.375C13.625 11.3004 13.5954 11.2289 13.5426 11.1761C13.4899 11.1234 13.4183 11.0938 13.3438 11.0938H12.2188V10.5313H12.7812C12.8558 10.5313 12.9274 10.5016 12.9801 10.4489C13.0329 10.3961 13.0625 10.3246 13.0625 10.25C13.0625 10.1754 13.0329 10.1039 12.9801 10.0511C12.9274 9.99838 12.8558 9.96875 12.7812 9.96875H12.2188V9.40625H13.7558L14.2339 10.1248C14.2367 10.1291 14.2409 10.1324 14.244 10.1367C14.2471 10.1409 14.2477 10.1437 14.2502 10.1468L16.7188 13.1629V17.2813H15.875C15.8004 17.2813 15.7289 17.3109 15.6761 17.3636C15.6234 17.4164 15.5938 17.4879 15.5938 17.5625V17.8438H10.8125V17.2813ZM10.25 18.4063H15.5938V18.9688H10.25V18.4063ZM10.8125 20.9375H13.0625C13.1371 20.9375 13.2086 20.9079 13.2614 20.8551C13.3141 20.8024 13.3438 20.7308 13.3438 20.6563C13.3438 20.5817 13.3141 20.5101 13.2614 20.4574C13.2086 20.4046 13.1371 20.375 13.0625 20.375H10.8125V19.5313H15.5938V19.8125C15.5938 19.8871 15.6234 19.9586 15.6761 20.0114C15.7289 20.0641 15.8004 20.0938 15.875 20.0938H16.7188V21.2188H15.875C15.8004 21.2188 15.7289 21.2484 15.6761 21.3011C15.6234 21.3539 15.5938 21.4254 15.5938 21.5V21.7813H10.8125V20.9375ZM10.25 22.3438H15.5938V22.9063H10.25V22.3438ZM16.7188 24.5938H10.8125V23.4688H15.5938V23.75C15.5938 23.8246 15.6234 23.8961 15.6761 23.9489C15.7289 24.0016 15.8004 24.0313 15.875 24.0313H16.7188V24.5938ZM17.8438 23.4688H16.1562V21.7813H17.8438V23.4688ZM23.75 22.9063H18.4062V22.3438H23.75V22.9063ZM23.1875 20.375H21.2188C21.1442 20.375 21.0726 20.4046 21.0199 20.4574C20.9671 20.5101 20.9375 20.5817 20.9375 20.6563C20.9375 20.7308 20.9671 20.8024 21.0199 20.8551C21.0726 20.9079 21.1442 20.9375 21.2188 20.9375H23.1875V21.7813H18.4062V21.5C18.4062 21.4254 18.3766 21.3539 18.3239 21.3011C18.2711 21.2484 18.1996 21.2188 18.125 21.2188H17.2812V20.0938H18.125C18.1996 20.0938 18.2711 20.0641 18.3239 20.0114C18.3766 19.9586 18.4062 19.8871 18.4062 19.8125V19.5313H23.1875V20.375ZM23.75 18.9688H18.4062V18.4063H19.3437C19.4182 18.4063 19.4898 18.3766 19.5425 18.3239C19.5953 18.2711 19.6249 18.1996 19.6249 18.125C19.6249 18.0504 19.5953 17.9789 19.5425 17.9261C19.4898 17.8734 19.4182 17.8438 19.3437 17.8438H18.4062V17.5625C18.4062 17.4879 18.3766 17.4164 18.3239 17.3636C18.2711 17.3109 18.1996 17.2813 18.125 17.2813H17.2812V13.625L17.9563 14.1313C18.0159 14.176 18.0909 14.1952 18.1648 14.1847C18.2386 14.1741 18.3052 14.1347 18.35 14.075C18.3948 14.0153 18.414 13.9403 18.4034 13.8665C18.3929 13.7926 18.3534 13.726 18.2937 13.6813L17.3904 13.0037L19.4775 10.135L19.4798 10.1305C19.4812 10.1288 19.4829 10.1274 19.484 10.1257L19.963 9.40625H21.5V9.96875H20.9375C20.8629 9.96875 20.7914 9.99838 20.7386 10.0511C20.6859 10.1039 20.6562 10.1754 20.6562 10.25C20.6562 10.3246 20.6859 10.3961 20.7386 10.4489C20.7914 10.5016 20.8629 10.5313 20.9375 10.5313H21.5V11.0938H20.375C20.3004 11.0938 20.2289 11.1234 20.1761 11.1761C20.1234 11.2289 20.0938 11.3004 20.0938 11.375C20.0938 11.4496 20.1234 11.5211 20.1761 11.5739C20.2289 11.6266 20.3004 11.6563 20.375 11.6563H21.5V12.2188H20.9375C20.8629 12.2188 20.7914 12.2484 20.7386 12.3011C20.6859 12.3539 20.6562 12.4254 20.6562 12.5C20.6562 12.5746 20.6859 12.6461 20.7386 12.6989C20.7914 12.7516 20.8629 12.7813 20.9375 12.7813H21.5V15.5938C21.5 15.64 21.5114 15.6856 21.5332 15.7264C21.5551 15.7673 21.5866 15.8021 21.6252 15.8278L22.9625 16.7188H22.0625C21.9879 16.7188 21.9164 16.7484 21.8636 16.8011C21.8109 16.8539 21.7812 16.9254 21.7812 17C21.7812 17.0746 21.8109 17.1461 21.8636 17.1989C21.9164 17.2516 21.9879 17.2813 22.0625 17.2813H23.1875V17.8438H20.6562C20.5817 17.8438 20.5101 17.8734 20.4574 17.9261C20.4046 17.9789 20.375 18.0504 20.375 18.125C20.375 18.1996 20.4046 18.2711 20.4574 18.3239C20.5101 18.3766 20.5817 18.4063 20.6562 18.4063H23.75V18.9688Z" fill="#4D4C4C"/>
<path d="M19.1684 14.269C19.114 14.2188 19.0427 14.1909 18.9687 14.1909C18.8947 14.1909 18.8234 14.2188 18.769 14.269C18.7436 14.2959 18.7236 14.3274 18.71 14.3618C18.6952 14.3955 18.6875 14.4319 18.6875 14.4687C18.6875 14.5055 18.6952 14.5419 18.71 14.5755C18.7243 14.6096 18.7443 14.6409 18.769 14.6683C18.7964 14.6932 18.8278 14.7131 18.8619 14.7274C18.913 14.7493 18.9696 14.7554 19.0242 14.7449C19.0788 14.7344 19.1291 14.7077 19.1684 14.6683C19.1932 14.6409 19.2132 14.6096 19.2275 14.5755C19.2423 14.5419 19.25 14.5055 19.25 14.4687C19.25 14.4319 19.2423 14.3955 19.2275 14.3618C19.2139 14.3274 19.1938 14.2959 19.1684 14.269Z" fill="#4D4C4C"/>
<path d="M15.875 14.1872C15.8751 13.9319 15.8057 13.6813 15.6742 13.4624C15.5428 13.2435 15.3541 13.0646 15.1287 12.9447C14.9032 12.8249 14.6493 12.7687 14.3943 12.7822C14.1393 12.7958 13.8928 12.8785 13.6813 13.0215C13.6195 13.0632 13.5768 13.1278 13.5626 13.2011C13.5485 13.2743 13.564 13.3502 13.6057 13.412C13.6475 13.4738 13.7121 13.5164 13.7854 13.5306C13.8586 13.5448 13.9345 13.5293 13.9963 13.4875C14.1522 13.3821 14.339 13.3318 14.5268 13.3448C14.7146 13.3577 14.8927 13.4331 15.0327 13.559C15.1728 13.6848 15.2667 13.8539 15.2995 14.0392C15.3324 14.2246 15.3023 14.4157 15.2141 14.582C15.1259 14.7483 14.9845 14.8803 14.8126 14.957C14.6407 15.0338 14.4481 15.0508 14.2653 15.0054C14.0826 14.96 13.9203 14.8548 13.8043 14.7066C13.6883 14.5583 13.6252 14.3755 13.625 14.1872C13.625 14.1126 13.5954 14.0411 13.5426 13.9884C13.4899 13.9356 13.4183 13.906 13.3438 13.906C13.2692 13.906 13.1976 13.9356 13.1449 13.9884C13.0921 14.0411 13.0625 14.1126 13.0625 14.1872C13.0625 14.5602 13.2107 14.9179 13.4744 15.1816C13.7381 15.4453 14.0958 15.5935 14.4688 15.5935C14.8417 15.5935 15.1994 15.4453 15.4631 15.1816C15.7268 14.9179 15.875 14.5602 15.875 14.1872Z" fill="#4D4C4C"/>
<path d="M14.3872 20.4567C14.354 20.424 14.3134 20.4 14.2687 20.3867C14.2241 20.3735 14.1769 20.3714 14.1313 20.3807C14.1136 20.3838 14.0966 20.3895 14.0806 20.3976C14.0627 20.4038 14.0457 20.4123 14.03 20.4229C14.0153 20.4333 14.0012 20.4446 13.9878 20.4567C13.9364 20.5106 13.9073 20.5819 13.9063 20.6564C13.9059 20.6934 13.9129 20.7301 13.9269 20.7644C13.9409 20.7987 13.9616 20.8299 13.9878 20.856C14.0152 20.8809 14.0466 20.9008 14.0806 20.9151C14.1143 20.93 14.1507 20.9376 14.1875 20.9376C14.2243 20.9376 14.2607 20.93 14.2944 20.9151C14.3285 20.9008 14.3598 20.8809 14.3872 20.856C14.4397 20.8028 14.469 20.7311 14.4688 20.6564C14.4677 20.5819 14.4386 20.5106 14.3872 20.4567Z" fill="#4D4C4C"/>
<path d="M13.5434 16.8004C13.5035 16.7619 13.4533 16.7359 13.3989 16.7254C13.3445 16.7149 13.2882 16.7204 13.2369 16.7414C13.2024 16.755 13.1709 16.775 13.144 16.8004C13.1192 16.8278 13.0993 16.8592 13.085 16.8932C13.0702 16.9269 13.0625 16.9633 13.0625 17.0001C13.0625 17.0369 13.0702 17.0733 13.085 17.107C13.0993 17.141 13.1193 17.1724 13.144 17.1998C13.1974 17.2521 13.2691 17.2814 13.3437 17.2814C13.4184 17.2814 13.4901 17.2521 13.5434 17.1998C13.5682 17.1724 13.5882 17.141 13.6025 17.107C13.6173 17.0733 13.625 17.0369 13.625 17.0001C13.625 16.9633 13.6173 16.9269 13.6025 16.8932C13.5882 16.8592 13.5682 16.8278 13.5434 16.8004Z" fill="#4D4C4C"/>
<path d="M19.835 20.7629C19.8493 20.7969 19.8693 20.8283 19.8941 20.8557C19.9334 20.895 19.9836 20.9217 20.0383 20.9322C20.0929 20.9427 20.1495 20.9367 20.2006 20.9147C20.2347 20.9005 20.2661 20.8805 20.2934 20.8557C20.3196 20.8295 20.3403 20.7983 20.3543 20.7641C20.3683 20.7298 20.3754 20.693 20.375 20.656C20.374 20.5815 20.3448 20.5102 20.2934 20.4563C20.2665 20.4309 20.235 20.4108 20.2006 20.3972C20.1671 20.3819 20.1306 20.374 20.0938 20.374C20.0569 20.374 20.0204 20.3819 19.9869 20.3972C19.9528 20.4115 19.9214 20.4315 19.8941 20.4563C19.8427 20.5102 19.8135 20.5815 19.8125 20.656C19.8129 20.6927 19.8206 20.7291 19.835 20.7629Z" fill="#4D4C4C"/>
<path d="M20.7378 17.1998C20.7911 17.2521 20.8628 17.2814 20.9375 17.2814C21.0122 17.2814 21.0839 17.2521 21.1372 17.1998C21.1619 17.1724 21.1819 17.141 21.1962 17.107C21.2111 17.0733 21.2187 17.0369 21.2187 17.0001C21.2187 16.9633 21.2111 16.9269 21.1962 16.8932C21.182 16.8592 21.162 16.8278 21.1372 16.8004C21.0973 16.7619 21.0471 16.7359 20.9927 16.7254C20.9382 16.7149 20.8819 16.7204 20.8306 16.7414C20.7962 16.755 20.7647 16.775 20.7378 16.8004C20.713 16.8278 20.693 16.8592 20.6787 16.8932C20.6639 16.9269 20.6562 16.9633 20.6562 17.0001C20.6562 17.0369 20.6639 17.0733 20.6787 17.107C20.6931 17.141 20.713 17.1724 20.7378 17.1998Z" fill="#4D4C4C"/>
</svg>
