<svg width="34" height="34" viewBox="0 0 34 34" fill="none" xmlns="http://www.w3.org/2000/svg">
<circle cx="17" cy="17" r="16.5" stroke="#4D4C4C"/>
<path d="M18.5474 9.59781C16.6065 9.32696 15.4846 9.81634 15.4846 9.81634L14.8507 10.4075L13.0647 11.2549C13.0647 11.2549 12.5922 11.4282 11.8829 12.3583L10.1797 14.9278L12.3875 16.788L13.1446 15.9844C13.1446 15.9844 13.2701 18.5385 13.2701 24.1832C13.2701 24.1832 15.2458 24.4205 17.1119 24.3885H17.1966C19.0624 24.4202 21.0379 24.1832 21.0379 24.1832C21.0379 18.5385 21.1642 15.9844 21.1642 15.9844L21.9205 16.788L24.1283 14.9278L22.4247 12.358C21.7152 11.4279 21.2429 11.2547 21.2429 11.2547L19.2683 10.2323L18.5474 9.59781Z" stroke="#4D4C4C" stroke-width="1.5" stroke-miterlimit="10" stroke-linecap="round" stroke-linejoin="round"/>
<path d="M12.855 13.873C12.855 13.873 12.8606 14.509 13.1447 15.9838" stroke="#4D4C4C" stroke-width="1.5" stroke-miterlimit="10" stroke-linecap="round" stroke-linejoin="round"/>
<path d="M21.4633 13.873C21.4633 13.873 21.4574 14.509 21.1733 15.9838" stroke="#4D4C4C" stroke-width="1.5" stroke-miterlimit="10" stroke-linecap="round" stroke-linejoin="round"/>
<path d="M16.857 12.2365C16.857 12.2365 16.9576 11.6627 17.463 11.4805C17.2552 12.5979 17.463 15.7324 17.463 15.7324C17.2071 16.0094 16.8457 15.9729 16.8457 15.9729V12.3478L16.857 12.2365Z" stroke="#4D4C4C" stroke-width="1.5" stroke-miterlimit="10" stroke-linecap="round" stroke-linejoin="round"/>
<path d="M17.5322 11.4264C17.976 11.2442 18.8735 10.194 18.5473 9.59717L19.2684 10.2317C19.2684 10.2317 19.3772 11.8747 18.6114 12.64C18.6114 12.64 18.3023 12.5869 18.174 11.8089C18.1746 11.8089 17.798 11.3173 17.5322 11.4264Z" stroke="#4D4C4C" stroke-width="1.5" stroke-miterlimit="10" stroke-linecap="round" stroke-linejoin="round"/>
<path d="M16.6438 11.3693C16.1074 10.8329 15.3652 12.5066 15.3652 12.5066C14.7639 11.5006 14.8505 10.4071 14.8505 10.4071L15.4845 9.81592C15.4845 9.81592 15.6602 10.604 16.3597 11.1721C16.36 11.1724 16.5352 11.2601 16.6438 11.3693Z" stroke="#4D4C4C" stroke-width="1.5" stroke-miterlimit="10" stroke-linecap="round" stroke-linejoin="round"/>
<path d="M18.5476 9.59743C18.8733 10.1942 17.9764 11.2444 17.5326 11.4267C17.0696 11.6233 16.8576 12.2367 16.8576 12.2367L16.8463 12.3121L16.868 11.9934C16.9251 11.481 16.6075 11.3353 16.6075 11.3353L16.6447 11.3693C16.5358 11.2602 16.3606 11.1722 16.3606 11.1722C15.6611 10.6037 15.4854 9.81596 15.4854 9.81596C15.4854 9.81596 16.6067 9.32631 18.5476 9.59743Z" stroke="#4D4C4C" stroke-width="1.5" stroke-miterlimit="10" stroke-linecap="round" stroke-linejoin="round"/>
<path d="M18.5359 10.2757C18.6304 10.0319 18.6534 9.79082 18.5477 9.59732C16.6068 9.32648 15.4849 9.81585 15.4849 9.81585C15.4849 9.81585 15.5406 10.067 15.7152 10.3879C15.7155 10.3879 16.7899 10.0231 18.5359 10.2757Z" stroke="#4D4C4C" stroke-width="1.5" stroke-miterlimit="10" stroke-linecap="round" stroke-linejoin="round"/>
</svg>
