<svg width="34" height="34" viewBox="0 0 34 34" fill="none" xmlns="http://www.w3.org/2000/svg">
<circle cx="17" cy="17" r="16.5" stroke="#4D4C4C"/>
<path d="M8.98305 13.6625C8.99315 13.6349 8.99739 13.6055 8.99551 13.5762C8.99363 13.5469 8.98566 13.5183 8.97211 13.4922C8.95857 13.4661 8.93974 13.4431 8.91683 13.4247C8.89392 13.4063 8.86743 13.3929 8.83905 13.3852C8.78627 13.3725 8.73066 13.38 8.68308 13.4061C8.6355 13.4322 8.59939 13.4752 8.5818 13.5265C8.55078 13.613 8.52622 13.7017 8.50832 13.7918C8.46463 14.0127 8.47066 14.2405 8.52598 14.4587C8.5813 14.6769 8.68452 14.8801 8.82814 15.0534C9.06316 15.3404 9.39414 15.5326 9.7599 15.5945C9.67144 15.9888 9.69791 16.5639 10.1954 16.9862C10.483 17.2281 10.8459 17.3622 11.2217 17.3654C11.5446 17.3691 11.8635 17.2937 12.1507 17.146C12.4002 17.4052 13.0189 17.9107 14.0502 17.9106C14.3221 17.9091 14.593 17.8767 14.8576 17.814C14.9277 17.8574 14.9995 17.9005 15.0754 17.9429C15.2903 18.0655 15.4746 18.2353 15.6144 18.4394C15.7542 18.6435 15.8459 18.8767 15.8825 19.1214C15.9782 19.7505 16.0357 20.7911 15.767 22.1716C15.7617 22.1958 15.2231 24.6037 13.6664 25.371C13.6165 25.3957 13.5783 25.4389 13.56 25.4915C13.5418 25.544 13.5448 25.6016 13.5687 25.6519C13.587 25.6888 13.6155 25.7198 13.6508 25.7412C13.6861 25.7626 13.7267 25.7735 13.7679 25.7727H14.8691C14.9228 25.7736 14.975 25.7546 15.0156 25.7194C15.0562 25.6841 15.0823 25.6351 15.089 25.5818C15.0919 25.5524 15.0886 25.5226 15.0793 25.4946C15.07 25.4665 15.055 25.4407 15.0351 25.4188C15.0153 25.3969 14.9911 25.3794 14.964 25.3674C14.937 25.3554 14.9078 25.3492 14.8782 25.3492H14.4642C15.7278 24.288 16.161 22.3542 16.182 22.257C16.4633 20.8125 16.4022 19.7199 16.3015 19.0577C16.255 18.7492 16.1391 18.4554 15.9625 18.1982C15.7859 17.9411 15.5533 17.7274 15.2822 17.5731C13.9481 16.8279 13.6609 15.9303 13.6168 15.4199C13.8611 15.5185 14.1183 15.5814 14.3805 15.6068C14.8032 16.8976 16.0729 17.1309 16.1287 17.1405C16.1591 17.1457 16.1903 17.1443 16.2201 17.1362C16.2498 17.1281 16.2775 17.1136 16.3011 17.0938C16.3247 17.0739 16.3436 17.0491 16.3566 17.0211C16.3696 16.9931 16.3764 16.9627 16.3764 16.9318C16.3764 16.1779 16.3437 15.3744 16.317 14.8446C16.8427 14.9152 18.0294 14.9974 18.9349 14.4868C19.07 14.8129 19.3218 15.0769 19.6411 15.2273C19.4036 15.6415 18.9711 16.1753 18.2625 16.3481C18.2466 16.118 18.2258 15.7399 18.2211 15.3217C18.2206 15.2658 18.1981 15.2124 18.1584 15.1731C18.1188 15.1337 18.0652 15.1116 18.0093 15.1116H18.0069C17.9792 15.1116 17.9518 15.1171 17.9263 15.1278C17.9007 15.1384 17.8776 15.154 17.8581 15.1737C17.8386 15.1933 17.8232 15.2167 17.8128 15.2423C17.8024 15.2679 17.7972 15.2954 17.7975 15.323C17.8053 16.0198 17.8557 16.5934 17.858 16.6174C17.8627 16.6701 17.887 16.7191 17.926 16.7548C17.9651 16.7905 18.0161 16.8103 18.069 16.8103C18.0778 16.8103 18.0867 16.8098 18.0954 16.8087C19.1572 16.6752 19.7544 15.9079 20.048 15.3683C20.1855 15.3991 20.3254 15.4185 20.4662 15.4261C20.498 15.4279 20.5281 15.4282 20.5587 15.4288C20.5534 15.4518 20.5482 15.4749 20.542 15.4976C20.433 15.8909 20.1946 16.2359 19.8653 16.477C19.5658 16.7 19.2836 16.9452 19.0209 17.2105C18.4614 17.7872 18.2162 18.3742 18.2258 19.1139C18.2603 21.7722 19.033 23.4275 19.6752 24.348C19.929 24.7165 20.2268 25.0528 20.5621 25.3492H20.3597C20.3059 25.3483 20.2538 25.3673 20.2132 25.4026C20.1726 25.4378 20.1465 25.4868 20.1398 25.5402C20.1369 25.5696 20.1402 25.5993 20.1495 25.6274C20.1587 25.6554 20.1738 25.6813 20.1936 25.7032C20.2135 25.7251 20.2377 25.7426 20.2647 25.7546C20.2918 25.7665 20.321 25.7727 20.3506 25.7727H21.202C21.2429 25.7735 21.2831 25.7629 21.3182 25.7421C21.3533 25.7212 21.3819 25.691 21.4008 25.6548C21.4252 25.6052 21.4293 25.5481 21.4123 25.4955C21.3952 25.443 21.3583 25.3992 21.3094 25.3734C21.303 25.37 20.6538 25.0204 20.0056 24.0812C19.405 23.211 18.6821 21.6418 18.6493 19.1084C18.6413 18.4897 18.8496 17.9953 19.3249 17.5054C19.5715 17.2564 19.8365 17.0263 20.1177 16.8172C20.5237 16.519 20.8174 16.0926 20.9512 15.607C20.97 15.5365 20.985 15.4648 20.9968 15.3925C21.2716 15.3389 21.5291 15.2192 21.7472 15.0437C21.9653 14.8682 22.1373 14.6422 22.2484 14.3852C22.6278 14.49 23.4724 14.6634 24.2801 14.4212C24.3335 14.4048 24.3782 14.3679 24.4045 14.3185C24.4308 14.2692 24.4365 14.2115 24.4205 14.158C24.4044 14.1045 24.3678 14.0595 24.3187 14.0328C24.2696 14.0061 24.212 14 24.1583 14.0156C23.2327 14.2931 22.1984 13.9275 22.1883 13.9239L22.1869 13.9235C22.1865 13.9235 22.1861 13.9231 22.1857 13.9229C21.8291 13.7948 21.5128 13.5745 21.2691 13.2845C21.2351 13.2401 21.185 13.2108 21.1296 13.2032C21.0742 13.1956 21.018 13.2102 20.9734 13.2439C20.9287 13.2775 20.8992 13.3275 20.8912 13.3828C20.8832 13.4382 20.8974 13.4944 20.9308 13.5393C21.178 13.8403 21.4911 14.0806 21.8458 14.2415C21.7135 14.5251 21.3502 15.053 20.4906 15.0031C19.5958 14.951 19.3548 14.4578 19.2917 14.2393C19.5266 14.0359 20.0268 13.4964 19.8476 12.7077C19.8344 12.6538 19.8005 12.6071 19.7532 12.5779C19.706 12.5487 19.6491 12.5392 19.5949 12.5515C19.5407 12.5638 19.4936 12.5969 19.4636 12.6437C19.4336 12.6905 19.4232 12.7472 19.4346 12.8016C19.5965 13.5136 18.9665 13.9603 18.9391 13.9794C18.9382 13.98 18.9375 13.9808 18.9367 13.9815C18.9358 13.9821 18.9337 13.9832 18.9323 13.9842C17.9441 14.7219 16.2505 14.4086 16.1407 14.3873C15.0678 14.1017 14.9532 13.4184 14.9482 13.3843C14.9447 13.3567 14.9358 13.3301 14.922 13.306C14.9082 13.2818 14.8898 13.2606 14.8678 13.2436C14.8458 13.2265 14.8207 13.214 14.7939 13.2067C14.7671 13.1993 14.7391 13.1974 14.7115 13.2009C14.6839 13.2044 14.6572 13.2133 14.6331 13.2271C14.6089 13.2408 14.5877 13.2593 14.5707 13.2812C14.5363 13.3256 14.5209 13.3819 14.528 13.4376C14.5328 13.4767 14.656 14.3644 15.8881 14.7544C15.9121 15.2127 15.9441 15.9359 15.9512 16.6501C15.6336 16.5326 15.0952 16.245 14.8305 15.6014C14.9404 15.5887 15.049 15.5668 15.1553 15.536C15.2076 15.5215 15.2526 15.4881 15.2815 15.4422C15.3105 15.3964 15.3213 15.3414 15.3118 15.2879C15.306 15.2591 15.2942 15.2319 15.2772 15.2079C15.2602 15.1839 15.2384 15.1637 15.2132 15.1486C15.188 15.1335 15.1599 15.1238 15.1308 15.1201C15.1016 15.1164 15.072 15.1189 15.0438 15.1273C14.2832 15.3542 13.5231 14.9085 13.5159 14.9042C13.5149 14.9036 13.5137 14.9033 13.5126 14.9027C13.504 14.8979 13.495 14.8937 13.4858 14.8902C13.4815 14.8885 13.4773 14.8861 13.4728 14.8846C13.4641 14.8821 13.4553 14.8801 13.4464 14.8786C13.4411 14.8776 13.4358 14.8758 13.4299 14.8752H13.4286C13.3997 14.8722 13.3705 14.8752 13.3429 14.8841H13.3423C11.8994 15.346 11.4052 14.4807 11.3856 14.445C11.3693 14.4141 11.3455 14.3877 11.3165 14.3682C11.2875 14.3487 11.2541 14.3367 11.2193 14.3333C10.6309 14.275 10.2122 14.0701 9.97479 13.7244C9.58266 13.1535 9.79379 12.3625 9.79585 12.3551C9.80606 12.3186 9.80632 12.2801 9.79659 12.2435C9.58811 11.4597 9.84265 11.0779 10.0723 10.8993C10.0998 11.2083 10.2264 11.5002 10.4331 11.7314C10.453 11.7537 10.4775 11.7716 10.5048 11.7838C10.5321 11.7959 10.5617 11.8022 10.5916 11.8021C10.6215 11.8021 10.6511 11.7957 10.6783 11.7833C10.7056 11.771 10.7299 11.753 10.7497 11.7306C10.7837 11.6895 10.8016 11.6373 10.8001 11.584C10.7985 11.5306 10.7776 11.4796 10.7413 11.4405C10.6433 11.3269 10.571 11.1936 10.5291 11.0496C10.4873 10.9056 10.477 10.7543 10.4989 10.6059C10.8889 9.42863 11.8556 9.56828 11.8957 9.57453C11.944 9.58279 11.9936 9.57407 12.0361 9.54988C12.0787 9.52568 12.1115 9.48749 12.1291 9.44181C12.2225 9.19886 12.5808 9.06857 12.7103 9.03903C12.7156 9.03787 12.7209 9.03644 12.7262 9.03485C13.2291 8.88132 13.622 9.1896 13.6375 9.20204C13.6755 9.23316 13.7231 9.25012 13.7722 9.25C13.8214 9.24989 13.8689 9.23271 13.9067 9.2014C14.6817 8.56039 15.825 8.65283 16.4995 8.78497C16.2652 8.86917 16.0237 8.93161 15.7779 8.97148C15.7258 8.97929 15.6782 9.0058 15.6441 9.04607C15.61 9.08635 15.5917 9.13764 15.5926 9.19039C15.5939 9.22031 15.6014 9.24963 15.6148 9.27641C15.6282 9.30319 15.6471 9.32682 15.6703 9.34576C15.6935 9.36469 15.7205 9.37848 15.7494 9.38623C15.7783 9.39398 15.8086 9.39551 15.8381 9.39072C16.6263 9.26324 17.1212 8.97778 17.2217 8.91563C18.7252 8.27848 19.896 8.98477 19.9448 9.01494C19.9748 9.03375 20.009 9.04473 20.0443 9.04688C20.0796 9.04904 20.1149 9.0423 20.1469 9.02728C20.9899 8.63313 21.6046 8.99678 21.6293 9.01177C21.6607 9.03147 21.6968 9.04256 21.7339 9.0439C22.4147 9.06884 22.8957 9.24068 23.1633 9.55463C23.3228 9.73952 23.4035 9.97952 23.3882 10.2232C23.3818 10.2536 23.2975 10.5899 22.7153 10.5742C22.6857 10.5733 22.6563 10.5787 22.629 10.5899C22.6016 10.6012 22.577 10.6181 22.5566 10.6395C22.5362 10.6609 22.5205 10.6864 22.5106 10.7142C22.5007 10.7421 22.4967 10.7717 22.499 10.8012C22.5045 10.8552 22.5299 10.9052 22.5702 10.9416C22.6105 10.9779 22.6629 10.998 22.7172 10.9979C22.7278 10.9979 22.7384 10.9979 22.749 10.9979C23.3074 10.9979 23.6007 10.7381 23.7293 10.5035C24.1087 10.6094 24.3869 10.7961 24.5577 11.0605C24.864 11.5349 24.7342 12.119 24.733 12.1241C24.7258 12.1546 24.7254 12.1863 24.7319 12.2169C24.7383 12.2476 24.7516 12.2764 24.7705 12.3013C24.8917 12.4583 24.9748 12.6414 25.0131 12.836C25.0544 13.0524 25.0192 13.2765 24.9134 13.4697C24.8927 13.5123 24.8815 13.5588 24.8805 13.6061C24.8795 13.6534 24.8887 13.7004 24.9075 13.7438C25.024 13.9696 25.1787 14.3743 25.047 14.7589C24.9431 15.0624 24.6735 15.312 24.2458 15.5009C24.2176 15.5133 24.1924 15.5318 24.1721 15.5549C24.1518 15.5781 24.1368 15.6054 24.1281 15.635C24.1148 15.6804 23.7851 16.7427 22.3064 16.4072C22.2679 16.3984 22.2277 16.4006 22.1903 16.4135C22.153 16.4264 22.12 16.4495 22.0951 16.4802C22.0877 16.4892 21.3449 17.3855 20.2072 17.1776C20.1783 17.1723 20.1485 17.1731 20.1199 17.18C20.0913 17.1869 20.0644 17.1996 20.041 17.2175C20.0176 17.2353 19.9981 17.2578 19.9839 17.2836C19.9697 17.3094 19.961 17.3378 19.9584 17.3672C19.9552 17.4215 19.9724 17.4751 20.0066 17.5175C20.0408 17.5599 20.0895 17.588 20.1433 17.5964C20.2795 17.6209 20.4175 17.6333 20.5558 17.6334C21.475 17.6334 22.11 17.0778 22.335 16.8458C23.8197 17.126 24.3618 16.1671 24.4976 15.8516C24.9919 15.6159 25.3114 15.2949 25.4479 14.8963C25.6173 14.4017 25.4587 13.9121 25.3155 13.6134C25.445 13.3472 25.4848 13.0464 25.429 12.7557C25.3849 12.5286 25.2946 12.3131 25.1636 12.1224C25.197 11.8974 25.2368 11.3348 24.9165 10.8353C24.6824 10.4704 24.3113 10.2192 23.811 10.0869C23.7929 9.79356 23.6815 9.5137 23.4929 9.28828C23.1534 8.8837 22.5842 8.65992 21.8006 8.62281C21.61 8.52349 20.9368 8.23708 20.0683 8.59909C19.6123 8.37128 19.1125 8.24455 18.603 8.22756C18.0935 8.21056 17.5863 8.3037 17.1161 8.50062C16.72 8.37706 14.9734 7.90593 13.7624 8.77803C13.5908 8.67515 13.3999 8.6087 13.2015 8.58283C13.0032 8.55697 12.8016 8.57223 12.6094 8.62768C12.5334 8.64594 12.0424 8.7766 11.8065 9.14603C11.4403 9.14004 10.5432 9.25313 10.1266 10.3862C9.86056 10.4969 9.63735 10.6906 9.49017 10.9383C9.2784 11.3 9.23923 11.7577 9.37338 12.2989C9.32314 12.5209 9.18539 13.3201 9.62342 13.9613C9.91989 14.3951 10.4086 14.6579 11.0773 14.7434C11.2361 14.9582 11.6901 15.4422 12.5607 15.4422C12.7724 15.4407 12.9832 15.4149 13.1891 15.3654C13.2123 15.8535 13.4121 16.6951 14.3687 17.4688C13.0204 17.6148 12.3957 16.7894 12.3675 16.7512C12.3357 16.707 12.2881 16.6767 12.2346 16.6667C12.1811 16.6567 12.1257 16.6677 12.0801 16.6974C11.8271 16.8638 11.5293 16.9492 11.2265 16.942C10.9495 16.94 10.6818 16.8415 10.4695 16.6635C9.92328 16.1999 10.224 15.5214 10.2365 15.4935C10.2517 15.461 10.2584 15.4251 10.2559 15.3892C10.2534 15.3534 10.2418 15.3188 10.2222 15.2887C10.2027 15.2586 10.1757 15.2339 10.144 15.217C10.1123 15.2002 10.0768 15.1917 10.0409 15.1923H10.018H10.0162C9.85137 15.1923 9.6886 15.1557 9.53965 15.0852C9.3907 15.0146 9.2593 14.9118 9.15495 14.7842C9.05122 14.6592 8.97664 14.5127 8.9366 14.3552C8.89657 14.1978 8.89209 14.0335 8.92349 13.8741C8.93786 13.8021 8.95777 13.7314 8.98305 13.6625Z" fill="#4D4C4C"/>
<path d="M18.3148 25.5613C18.3148 25.6174 18.3371 25.6713 18.3768 25.711C18.4165 25.7507 18.4704 25.773 18.5266 25.773H19.3661C19.3796 25.773 19.393 25.7716 19.4062 25.769C19.4111 25.7681 19.4156 25.7664 19.4202 25.7651C19.4284 25.7632 19.4364 25.7607 19.4443 25.7577C19.4496 25.7556 19.4549 25.7528 19.4598 25.7502C19.4666 25.7471 19.4731 25.7435 19.4795 25.7396C19.4848 25.7362 19.49 25.7322 19.4949 25.7283C19.4987 25.7253 19.5029 25.723 19.5066 25.7197C19.5081 25.7183 19.5092 25.7167 19.5107 25.7153C19.5162 25.7099 19.5213 25.7043 19.5262 25.6984C19.5304 25.6936 19.5347 25.6889 19.5384 25.6837C19.5422 25.6779 19.5457 25.6719 19.549 25.6658C19.5524 25.6599 19.5559 25.6541 19.5587 25.648C19.5614 25.6419 19.5633 25.6354 19.5655 25.629C19.5678 25.6226 19.5701 25.6158 19.5717 25.609C19.5733 25.6022 19.5738 25.5965 19.5747 25.5901C19.5759 25.5826 19.5766 25.575 19.577 25.5674C19.577 25.5653 19.5776 25.5634 19.5776 25.5613C19.5776 25.557 19.5766 25.5529 19.5763 25.5486C19.576 25.541 19.5752 25.5334 19.574 25.5258C19.5728 25.5193 19.5713 25.5129 19.5695 25.5065C19.5678 25.4997 19.5657 25.4929 19.5633 25.4864C19.5607 25.4798 19.5578 25.4734 19.5546 25.4672C19.5516 25.4613 19.5487 25.4554 19.5451 25.4497C19.541 25.4433 19.5365 25.4371 19.5317 25.4311C19.5291 25.4278 19.5272 25.424 19.5242 25.4208C18.4742 24.237 18.2007 21.888 18.1978 21.8645C18.191 21.8092 18.1626 21.7588 18.1189 21.7243C18.0751 21.6897 18.0195 21.6738 17.9641 21.68C17.9088 21.6862 17.858 21.714 17.823 21.7573C17.7879 21.8006 17.7714 21.856 17.7769 21.9115C17.7875 22.0045 18.0219 24.0224 18.9336 25.3496H18.5264C18.4702 25.3496 18.4164 25.3719 18.3768 25.4116C18.3371 25.4513 18.3148 25.5051 18.3148 25.5613Z" fill="#4D4C4C"/>
<path d="M15.5794 25.3847L15.5789 25.385C15.5673 25.3928 15.5566 25.4017 15.5467 25.4115C15.5424 25.4158 15.5392 25.4207 15.5353 25.4253C15.5301 25.431 15.5252 25.4371 15.5206 25.4434C15.5171 25.4491 15.514 25.4549 15.5111 25.4609C15.5033 25.4728 15.4977 25.4862 15.4948 25.5002C15.4929 25.5065 15.4904 25.5125 15.489 25.519C15.4863 25.5327 15.4849 25.5465 15.4849 25.5604V25.5611C15.4849 25.5645 15.4857 25.5677 15.4859 25.5712C15.4861 25.5816 15.4872 25.5919 15.489 25.6022C15.4903 25.6089 15.4928 25.6153 15.4948 25.6219C15.4987 25.6389 15.5057 25.655 15.5156 25.6695C15.5173 25.6724 15.5183 25.6755 15.5202 25.6783L15.5207 25.6789C15.5213 25.6799 15.5221 25.6808 15.5228 25.6817C15.5292 25.6909 15.5364 25.6996 15.5442 25.7077C15.546 25.7095 15.5478 25.7114 15.5495 25.713C15.5582 25.7215 15.5675 25.7292 15.5775 25.7361L15.5802 25.7377C15.5896 25.7438 15.5995 25.7491 15.6098 25.7536C15.6122 25.7546 15.6145 25.7558 15.617 25.7568C15.6279 25.7613 15.6392 25.7648 15.6507 25.7674C15.6534 25.768 15.656 25.7683 15.6587 25.7688C15.6711 25.7712 15.6836 25.7725 15.6962 25.7726H17.2044C17.2178 25.7726 17.2312 25.7712 17.2444 25.7686C17.2491 25.7677 17.2536 25.7661 17.2583 25.7649C17.2665 25.7628 17.2745 25.7603 17.2824 25.7573C17.2877 25.7553 17.2926 25.7526 17.2977 25.7501C17.3045 25.7469 17.3111 25.7434 17.3175 25.7395C17.3228 25.7362 17.3275 25.7323 17.3325 25.7286C17.3363 25.7257 17.3403 25.7233 17.344 25.7202C17.3477 25.7171 17.3506 25.7139 17.354 25.7108C17.9265 25.1951 17.8323 24.1519 17.828 24.1075C17.8218 24.0522 17.7942 24.0015 17.751 23.9665C17.7078 23.9314 17.6525 23.9148 17.5971 23.9202C17.5418 23.9255 17.4907 23.9524 17.4551 23.9951C17.4194 24.0378 17.4019 24.0928 17.4065 24.1482C17.4284 24.3802 17.4145 25.0218 17.1169 25.3494H16.2768C17.3562 24.2242 17.3382 22.4093 17.3367 22.3264V19.4842C17.3367 19.4281 17.3144 19.3742 17.2747 19.3345C17.235 19.2948 17.1811 19.2725 17.125 19.2725C17.0688 19.2725 17.015 19.2948 16.9752 19.3345C16.9355 19.3742 16.9132 19.4281 16.9132 19.4842V22.3303C16.9136 22.3517 16.9357 24.4839 15.5794 25.3847Z" fill="#4D4C4C"/>
<path d="M14.9212 9.02832C14.8651 9.02832 14.8112 9.05063 14.7715 9.09034C14.7318 9.13006 14.7095 9.18392 14.7095 9.24008C14.7095 9.29625 14.7318 9.35011 14.7715 9.38982C14.8112 9.42954 14.8651 9.45185 14.9212 9.45185H14.9219C14.978 9.45204 15.032 9.42991 15.0718 9.39033C15.1117 9.35075 15.1342 9.29696 15.1343 9.2408C15.1345 9.18464 15.1124 9.1307 15.0728 9.09085C15.0332 9.051 14.9795 9.02851 14.9233 9.02832H14.9212Z" fill="#4D4C4C"/>
<path d="M17.1249 18.5107C17.181 18.5107 17.2349 18.4884 17.2746 18.4487C17.3143 18.4089 17.3366 18.3551 17.3366 18.2989V18.2147C17.3366 18.1585 17.3143 18.1047 17.2746 18.065C17.2349 18.0252 17.181 18.0029 17.1249 18.0029C17.0687 18.0029 17.0148 18.0252 16.9751 18.065C16.9354 18.1047 16.9131 18.1585 16.9131 18.2147V18.2989C16.9131 18.3551 16.9354 18.4089 16.9751 18.4487C17.0148 18.4884 17.0687 18.5107 17.1249 18.5107Z" fill="#4D4C4C"/>
</svg>
